# xmcd
#
# Track frame offsets:
#	150
#	12285
#	26505
#	43980
#	60342
#	74800
#	121779
#	140352
#	153632
#	176337
#	188145
#	202400
#	216230
#	228567
#	243334
#	257095
#	301200
#
# Disc length: 4443 seconds
# Revision: 0
# Processed by: cddbd v1.5.2PL0 Copyright (c) Steve Scherf et al.
# Submitted via: dBpowerAMP V12.0
#
DISCID=f8115911
DTITLE=Various Artist - All I Ever Need Is You
DYEAR=2004
DGENRE=Blues
TTITLE0=Oscar Benton and Monica - All I Ever Need Is You
TTITLE1=Oscar Benton and Monica - Everybody's Telling Me
TTITLE2=Oscar Benton - Roll on Sweet Mississippi
TTITLE3=Oscar Benton - Bensonhurst Blues
TTITLE4=Oscar Benton - Wooly Booly Boogie
TTITLE5=Oscar Benton - Draggin Around
TTITLE6=Oscar Benton - Today Is Yesterday's Tomorrow
TTITLE7=Oscar Benton - Stop What You're Doing
TTITLE8=Oscar Benton - Took Me a Long Time
TTITLE9=Oscar Benton - Come Back
TTITLE10=Oscar Benton - He's Crazy
TTITLE11=Oscar Benton - Josie
TTITLE12=Oscar Benton - Never Never Leave Me
TTITLE13=Oscar Benton - Rock 'n' Roller
TTITLE14=Oscar Benton - You and I
TTITLE15=Oscar Benton - I Don't Know
TTITLE16=DATA
EXTD=
EXTT0=
EXTT1=
EXTT2=
EXTT3=
EXTT4=
EXTT5=
EXTT6=
EXTT7=
EXTT8=
EXTT9=
EXTT10=
EXTT11=
EXTT12=
EXTT13=
EXTT14=
EXTT15=
EXTT16=
PLAYORDER=
